<svg xmlns="http://www.w3.org/2000/svg" width="133" height="60" viewBox="0 0 133 60" fill="none"><g clip-path="url(#clip0)"><path d="M50.8217 7.32446C50.8217 5.29166 51.0603 4.03282 53.2027 3.78572C54.6341 3.64119 54.7763 3.64119 54.7763 2.86723C54.7763 2.04199 54.5377 1.89746 54.0606 1.89746C53.1568 1.89746 50.5832 2.1399 47.771 2.1399C42.3392 2.1399 40.6693 1.89746 39.2884 1.89746C38.4764 1.89746 38.4305 2.38235 38.4305 2.76932C38.4305 3.49665 38.6186 3.49665 40.1004 3.68781C42.5319 4.02816 42.9127 5.14247 42.9585 8.53201C43.0044 11.8236 42.9585 17.1061 42.9585 20.3977C42.9585 28.1 42.9585 29.7458 44.4862 32.4593C47.1562 37.1589 53.4459 37.4014 55.8773 37.4014C62.2174 37.4014 69.6998 35.9001 70.3146 26.0205C70.4109 24.3234 70.5531 15.9965 70.599 14.1035C70.8376 4.07945 70.8376 3.93492 73.8883 3.59456C75.127 3.45003 75.2692 3.45003 75.2692 2.62479C75.2692 2.04199 75.127 1.89746 74.6499 1.89746C73.0304 1.89746 71.411 2.1399 69.7916 2.1399C67.5987 2.1399 65.3599 1.89746 63.167 1.89746C62.4514 1.89746 62.2128 2.09328 62.2128 2.91386C62.2128 3.7391 62.6395 3.7391 64.1213 3.7391C65.7407 3.7391 67.0252 4.02816 67.3601 5.48282C67.7409 7.08201 67.7409 12.4577 67.7409 14.4905L67.695 22.286C67.695 24.5612 67.5987 27.7596 66.4564 29.839C64.7865 32.8882 62.5018 33.7134 59.0198 33.7134C56.3498 33.7134 54.1111 32.795 52.588 30.5197C51.0144 28.1466 50.9227 25.6289 50.8217 17.8288C50.7713 16.3321 50.8217 8.97027 50.8217 7.32446Z" fill="#00263E"></path><path d="M75.8978 12.7004C75.8978 17.0084 77.9484 18.948 85.4767 22.4821C90.6241 24.9065 92.7665 25.9229 92.7665 29.2611C92.7665 33.4759 89.0964 34.2499 86.4768 34.2499C83.7105 34.2499 78.8522 32.5574 78.0402 29.5036C77.6594 28.1002 77.5631 28.1002 76.8015 28.1002C76.2327 28.1002 76.0859 28.4406 75.9895 28.9721C75.9895 29.2611 75.5629 34.152 75.5629 34.3478C75.5629 35.2196 75.9895 35.8491 77.086 36.2873C79.1825 37.0613 82.2333 37.4016 84.5179 37.4016C93.0004 37.4016 100.153 33.4806 100.153 25.8763C100.153 21.13 96.8174 19.2883 93.0509 17.498C86.4768 14.3509 83.5683 12.9429 83.5683 9.31087C83.5683 6.30831 85.9034 4.56458 89.4313 4.56458C92.6701 4.56458 96.1017 5.87004 96.3907 8.14994C96.6293 9.84704 96.6797 10.0895 97.3449 10.0895C98.3955 10.0895 98.3955 9.84704 98.3955 7.91216C98.3955 7.23612 98.5882 4.13564 98.5882 3.65076C98.5882 3.35703 98.5882 2.58308 97.8266 2.24272C96.2531 1.46877 90.8672 1.41748 90.7754 1.41748C82.3296 1.41282 75.8978 5.194 75.8978 12.7004Z" fill="#00263E"></path><path d="M131.518 10.2291C131.518 3.10968 126.609 1.89746 120.604 1.89746C117.173 1.89746 113.837 2.1399 110.456 2.1399C107.598 2.1399 104.786 1.89746 101.928 1.89746C101.405 1.89746 101.258 2.04199 101.258 2.67141C101.258 3.44537 101.355 3.64119 102.07 3.68781C105.025 3.83234 105.456 4.41514 105.694 6.06095C105.837 6.97944 105.837 17.5397 105.837 19.33L105.786 23.5448V31.4895C105.786 34.3942 104.928 34.8324 102.07 35.0236C101.309 35.0702 101.258 35.2194 101.258 36.04C101.258 36.716 101.497 36.7673 101.974 36.7673C104.213 36.7673 106.502 36.5715 110.076 36.5715C113.172 36.6181 116.365 36.7673 118.751 36.7673C119.324 36.7673 119.421 36.5715 119.421 36.04C119.421 35.266 119.324 35.0236 118.613 34.9723C115.42 34.7811 114.085 34.3942 113.75 32.8416C113.461 31.4848 113.461 21.4095 113.461 19.2788C113.461 15.2132 113.512 10.9984 113.512 6.92815C113.512 4.89536 114.273 4.89536 116.42 4.89536C118.659 4.89536 120.04 5.18443 121.283 6.54118C122.664 8.04246 122.999 10.1265 122.999 11.7211C122.999 15.1619 121.568 18.6493 117.852 19.0829C116.232 19.2788 116.04 19.3254 116.04 19.8103C116.04 20.1506 116.228 20.7288 116.517 21.2649C116.801 21.7964 117.186 21.8944 117.659 21.8944C119.421 21.8944 121.517 21.6006 123.233 21.167C129.087 19.6751 131.518 15.8939 131.518 10.2291Z" fill="#00263E"></path><path d="M31.0537 53.0858C30.6041 52.834 30.0857 52.6802 29.5627 52.6802C28.4709 52.6802 27.2873 53.4495 27.2873 54.6617C27.2873 56.7364 30.4115 56.5733 30.4115 58.4196C30.4115 59.2308 29.8196 59.6877 29.0627 59.6877C27.9387 59.6877 27.2552 58.6993 27.0028 57.7062H26.8193L27.1129 59.4732C27.6359 59.8136 28.2874 60.0001 28.9113 60.0001C30.0857 60.0001 31.3932 59.3054 31.3932 57.9673C31.3932 55.8692 28.1773 55.9298 28.1773 54.1395C28.1773 53.4541 28.7186 52.9972 29.3701 52.9972C30.3793 52.9972 30.6454 53.8085 30.8106 54.6477H30.9757L31.0537 53.0858Z" fill="#00263E"></path><path d="M36.0037 52.9412C37.568 52.9412 38.6186 54.6849 38.6507 56.5219C38.6507 58.0045 37.9029 59.7483 36.2193 59.7483C34.3796 59.7483 33.5447 57.6922 33.5447 56.0836C33.5447 54.6849 34.2466 52.9412 36.0037 52.9412ZM36.0862 52.6941C33.953 52.6941 32.3611 54.1254 32.3611 56.3354C32.3611 58.578 33.9438 60 36.1 60C38.2424 60 39.8389 58.578 39.8389 56.3447C39.8343 54.4984 38.7012 52.6941 36.0862 52.6941Z" fill="#00263E"></path><path d="M45.7158 52.8201V52.9739C47.1471 53.1091 47.248 53.7106 47.248 55.03V56.121C47.248 57.3845 47.4636 59.5245 45.257 59.5245C42.4585 59.5245 42.7843 56.8483 42.7843 56.6479V54.5218C42.7843 53.3796 42.8072 53.1744 44.1422 52.9739V52.8201H40.6189V52.9739C41.8438 53.1418 41.8576 53.4542 41.8851 54.5218V56.8483C41.8851 57.6782 41.5594 60.0048 44.7248 60.0048C46.9911 60.0048 47.5554 58.6434 47.5829 57.3053L47.6426 55.0347C47.6838 53.664 47.7435 53.0812 48.6748 52.9786V52.8247H45.7158V52.8201Z" fill="#00263E"></path><path d="M55.2626 52.5869C55.0057 52.8247 54.9644 52.8154 54.6295 52.8154H49.9501C49.6152 52.8154 49.574 52.8247 49.3171 52.5869L49.2161 52.4937H49.1335L48.9913 54.4379L49.1335 54.4705C49.4914 53.1837 50.0511 53.1324 51.2255 53.1324H51.8403V57.93C51.8403 59.2168 51.7806 59.5571 50.4089 59.725V59.8835H54.1708V59.725C52.7991 59.5571 52.7394 59.2168 52.7394 57.93V53.1324H53.3542C54.5286 53.1324 55.0883 53.1837 55.4461 54.4705L55.5884 54.4379L55.4461 52.4937H55.3636L55.2626 52.5869Z" fill="#00263E"></path><path d="M58.1253 56.4612H62.2312V58.1722C62.2312 59.3145 62.2129 59.5197 60.8733 59.7155V59.874H64.3966V59.7155C63.1717 59.5476 63.1625 59.2399 63.1304 58.1722V54.517C63.1625 53.4493 63.1717 53.1369 64.3966 52.969V52.8152H60.8733V52.969C62.2129 53.1649 62.2312 53.3747 62.2312 54.517V56.0229H58.1253V54.517C58.1253 53.3747 58.1483 53.1695 59.4833 52.969V52.8152H55.96V52.969C57.1849 53.1369 57.194 53.4493 57.2261 54.517V58.1722C57.194 59.2399 57.1849 59.5523 55.96 59.7155V59.874H59.4833V59.7155C58.1483 59.5197 58.1253 59.3099 58.1253 58.1722V56.4612Z" fill="#00263E"></path><path d="M67.7593 53.0343C68.9521 53.095 68.9521 53.5425 68.9521 54.9552V58.1723C68.9246 59.2399 68.9108 59.5523 67.6859 59.7155V59.874H71.2092V59.7155C69.8696 59.5197 69.8513 59.3099 69.8513 58.1723V53.0437C71.0486 53.0343 72.1589 53.6451 72.1589 54.9925C72.1589 56.0322 71.4845 56.5171 70.5532 56.6617L70.5853 56.8155C71.7781 56.6803 73.2002 56.1628 73.2002 54.7081C73.2002 54.3025 72.9755 52.6753 69.9797 52.7872L67.7547 52.8712V53.0343H67.7593Z" fill="#00263E"></path><path d="M77.2052 56.4379H75.1821L76.1409 53.743L77.2052 56.4379ZM77.3383 56.9181C77.6044 57.6454 77.9943 58.6198 77.9943 59.0581C77.9943 59.5243 77.5631 59.6409 77.2052 59.7202V59.8787H80.2056V59.7202C79.389 59.5663 79.2146 59.2633 78.9394 58.5079L76.6914 52.4282C76.4758 52.6893 76.2235 52.8758 75.9482 52.9877C76.0629 53.1835 75.9299 53.4353 75.8381 53.7057L75.2234 55.3982L74.0719 58.4613C73.7554 59.2726 73.6636 59.4777 72.7552 59.7248V59.8834H75.5537V59.7248C75.0949 59.6502 74.3884 59.6502 74.3884 59.0208C74.3884 58.5219 74.838 57.4449 75.0124 56.9227H77.3383V56.9181Z" fill="#00263E"></path><path d="M86.7796 53.2536C86.1052 52.848 85.3207 52.6941 84.5454 52.6941C81.8479 52.6941 80.4303 54.5637 80.4303 56.41C80.4303 58.7552 82.3296 60 84.4628 60C85.1877 60 85.8942 59.8741 86.5456 59.5524C86.7933 58.951 86.986 58.3309 87.1053 57.6968L86.9631 57.6362C86.5043 58.7552 85.9722 59.7529 84.6372 59.7529C83.1553 59.7529 81.6139 58.3309 81.6139 56.2841C81.6139 54.4984 82.6645 52.9459 84.5362 52.9459C85.7611 52.9459 86.4355 53.7851 86.6282 54.96H86.7796V53.2536Z" fill="#00263E"></path><path d="M89.8533 54.5218C89.8855 53.4542 89.8946 53.1418 91.1195 52.9739V52.8201H87.688V52.9739C88.9129 53.1418 88.9266 53.4542 88.9542 54.5218V58.1771C88.9221 59.2448 88.9129 59.5572 87.688 59.7204V59.8789H91.1195V59.7204C89.8946 59.5525 89.8855 59.2448 89.8533 58.1771V54.5218Z" fill="#00263E"></path><path d="M96.2714 55.0998C96.1888 56.0882 95.6567 56.1674 94.7988 56.1674H93.684V53.0623H94.6153C95.6888 53.0623 96.5467 53.1136 96.6063 54.4517H96.7623L96.9274 52.8105H91.5232V52.9644C92.7481 53.1323 92.7573 53.4446 92.7894 54.5123V58.1676C92.7573 59.2353 92.7481 59.5477 91.5232 59.7108V59.8694H95.1566V59.7108C93.739 59.4917 93.684 59.2772 93.684 58.1676V56.601H94.7988C95.6567 56.601 96.1888 56.5824 96.2714 57.6268H96.4228V55.0951H96.2714V55.0998Z" fill="#00263E"></path><path d="M99.7121 54.5218C99.7442 53.4542 99.7534 53.1418 100.978 52.9739V52.8201H97.5468V52.9739C98.7717 53.1418 98.7808 53.4542 98.8129 54.5218V58.1771C98.7808 59.2448 98.7717 59.5572 97.5468 59.7204V59.8789H100.978V59.7204C99.7534 59.5525 99.7442 59.2448 99.7121 58.1771V54.5218Z" fill="#00263E"></path><path d="M108.135 53.2536C107.461 52.848 106.676 52.6941 105.896 52.6941C103.199 52.6941 101.781 54.5637 101.781 56.41C101.781 58.7552 103.68 60 105.814 60C106.538 60 107.245 59.8741 107.896 59.5524C108.14 58.951 108.337 58.3309 108.456 57.6968L108.314 57.6362C107.855 58.7552 107.323 59.7529 105.983 59.7529C104.502 59.7529 102.96 58.3309 102.96 56.2841C102.96 54.4984 104.011 52.9459 105.882 52.9459C107.107 52.9459 107.782 53.7851 107.974 54.96H108.126V53.2536H108.135Z" fill="#00263E"></path><path d="M8.40452 42.4089C8.14761 42.6467 8.11091 42.6374 7.77143 42.6374H3.09204C2.75715 42.6374 2.71586 42.6467 2.45895 42.4089L2.35802 42.3157H2.28003L2.13782 44.2552L2.28003 44.2879C2.63787 43.001 3.19756 42.9498 4.37199 42.9498H4.98674V47.7473C4.98674 49.0341 4.92251 49.3745 3.5554 49.5423V49.6962H7.31266V49.5423C5.94555 49.3745 5.88591 49.0341 5.88591 47.7473V42.9498H6.49607C7.6705 42.9498 8.23478 43.001 8.58803 44.2879L8.73024 44.2552L8.58803 42.3157H8.50545L8.40452 42.4089Z" fill="#00263E"></path><path d="M11.2718 46.2788H15.3777V47.9899C15.3777 49.1321 15.3548 49.3373 14.0198 49.5378V49.6916H17.5431V49.5378C16.3182 49.3699 16.309 49.0622 16.2769 47.9899V44.3392C16.309 43.2715 16.3182 42.9592 17.5431 42.7913V42.6375H14.0198V42.7913C15.3594 42.9871 15.3777 43.1969 15.3777 44.3392V45.8452H11.2718V44.3392C11.2718 43.1969 11.2902 42.9918 12.6297 42.7913V42.6375H9.10645V42.7913C10.3313 42.9592 10.3405 43.2669 10.3726 44.3392V47.9899C10.3405 49.0575 10.3313 49.3699 9.10645 49.5378V49.6916H12.6297V49.5378C11.2902 49.3419 11.2718 49.1321 11.2718 47.9899V46.2788Z" fill="#00263E"></path><path d="M18.0569 49.6963H23.7364C23.9428 49.0762 24.0759 48.4328 24.085 47.6402H23.9336C23.6767 48.9456 23.0436 49.4445 21.7591 49.4445C20.0846 49.4445 20.2268 48.596 20.2268 47.9805V46.2788H21.2866C22.0527 46.2788 22.6124 46.2881 22.7454 47.2019H22.8968V44.8894H22.7454C22.6308 45.7799 22.0481 45.8452 21.2866 45.8452H20.2268V42.8892H21.2178C22.25 42.8892 23.1996 42.8985 23.273 44.2366H23.4244L23.5483 42.6375H18.0569V42.7913C19.2818 42.9592 19.291 43.2669 19.3231 44.3392V47.9898C19.291 49.0575 19.2818 49.3699 18.0569 49.5378V49.6963Z" fill="#00263E"></path><path d="M32.5859 42.6375V42.7913C34.0172 42.9265 34.1181 43.528 34.1181 44.8474V45.9384C34.1181 47.2019 34.3338 49.3419 32.1271 49.3419C29.3287 49.3419 29.6544 46.6657 29.6544 46.4653V44.3392C29.6544 43.1969 29.6773 42.9918 31.0123 42.7913V42.6375H27.489V42.7913C28.7139 42.9592 28.7231 43.2669 28.7552 44.3392V46.6657C28.7552 47.4956 28.4249 49.8222 31.5949 49.8222C33.8612 49.8222 34.4255 48.4608 34.4576 47.1227L34.5173 44.8521C34.5586 43.4813 34.6182 42.8985 35.5495 42.796V42.6421H32.5859V42.6375Z" fill="#00263E"></path><path d="M37.536 42.6375H35.8523V42.7913C37.146 43.0804 37.3112 43.486 37.3112 44.5257V46.0829C37.3112 48.4374 37.3616 49.3932 35.9853 49.5378V49.6916H39.0407V49.5378C37.5589 49.2347 37.6231 48.7079 37.6231 46.1342V44.2227C39.3481 46.1109 41.1648 47.9246 42.8026 49.8874L42.9356 49.8548C42.8851 47.5936 42.8347 45.0899 42.9769 43.9522C43.0595 43.2762 43.1925 42.8846 43.899 42.7913V42.6375H41.1097V42.7913C42.2658 42.9965 42.5319 43.2902 42.5411 44.2739L42.5915 48.0598L37.536 42.6375Z" fill="#00263E"></path><path d="M46.4773 44.3392C46.5094 43.2715 46.5185 42.9592 47.7434 42.7913V42.6375H44.3119V42.7913C45.5368 42.9592 45.546 43.2669 45.5781 44.3392V47.9899C45.5506 49.0575 45.5368 49.3699 44.3119 49.5378V49.6916H47.7434V49.5378C46.5185 49.3699 46.5094 49.0622 46.4773 47.9899V44.3392Z" fill="#00263E"></path><path d="M52.5788 42.6375V42.7913C54.1294 43.0198 53.9689 43.3601 53.0881 45.4908L51.8815 48.4281L50.2483 44.4231C49.9822 43.7704 49.5143 42.9405 50.9548 42.796V42.6421H47.7159V42.796C48.6243 42.8985 48.8583 43.5653 49.1656 44.3206L51.4732 49.9341H51.6154L53.5652 45.2018C54.1983 43.6958 54.4965 42.8799 55.4553 42.796V42.6421H52.5788V42.6375Z" fill="#00263E"></path><path d="M55.3865 49.6963H61.066C61.2724 49.0762 61.4054 48.4328 61.4146 47.6402H61.2632C61.0063 48.9456 60.3732 49.4445 59.0887 49.4445C57.4142 49.4445 57.5564 48.596 57.5564 47.9805V46.2788H58.6162C59.3823 46.2788 59.9466 46.2881 60.075 47.2019H60.231V44.8894H60.075C59.9649 45.7799 59.3823 45.8452 58.6162 45.8452H57.5564V42.8892H58.5474C59.5796 42.8892 60.5292 42.8985 60.598 44.2366H60.7494L60.8733 42.6375H55.3911V42.7913C56.616 42.9592 56.6251 43.2669 56.6572 44.3392V47.9898C56.6251 49.0575 56.616 49.3699 55.3911 49.5378V49.6963H55.3865Z" fill="#00263E"></path><path d="M63.3048 47.9945C63.2727 49.0622 63.2635 49.3746 62.0386 49.5424V49.6963H65.6215V49.5424C64.2223 49.3466 64.2039 49.1368 64.2039 47.9945V46.3254C64.9196 46.4513 65.2866 46.1995 65.6949 47.062C65.9105 47.5096 66.4381 48.4234 67.1171 49.1368C67.7089 49.7615 68.5071 49.7289 69.5898 49.7802L69.6219 49.6217C67.9383 49.272 66.9565 47.4863 66.1674 46.0829L66.117 46.0083C66.851 45.6773 67.3832 45.1784 67.3832 44.3066C67.3832 43.8077 67.1767 42.5349 64.6076 42.6141L62.1166 42.6981V42.8426C63.2589 42.9452 63.3093 43.1829 63.3093 44.7728V47.9945H63.3048ZM64.2039 42.8333C65.2774 42.8239 66.328 43.3088 66.328 44.5257C66.328 45.6773 65.1857 46.1342 64.2039 46.1435V42.8333Z" fill="#00263E"></path><path d="M73.2874 42.9078C72.8378 42.6607 72.3194 42.5022 71.7965 42.5022C70.7046 42.5022 69.521 43.2668 69.521 44.4837C69.521 46.5585 72.6452 46.3953 72.6452 48.2416C72.6452 49.0528 72.0534 49.5097 71.2964 49.5097C70.1724 49.5097 69.4889 48.5213 69.232 47.5282H69.0485L69.3467 49.2953C69.8697 49.6356 70.5211 49.8221 71.145 49.8221C72.3194 49.8221 73.6269 49.1274 73.6269 47.7893C73.6269 45.6913 70.411 45.7565 70.411 43.9615C70.411 43.2761 70.9523 42.8192 71.6038 42.8192C72.6131 42.8192 72.8791 43.6258 73.0443 44.4697H73.2094L73.2874 42.9078Z" fill="#00263E"></path><path d="M76.5308 44.3392C76.5629 43.2715 76.5721 42.9592 77.797 42.7913V42.6375H74.3655V42.7913C75.5904 42.9592 75.6041 43.2669 75.6317 44.3392V47.9899C75.5995 49.0575 75.5904 49.3699 74.3655 49.5378V49.6916H77.797V49.5378C76.5721 49.3699 76.5629 49.0622 76.5308 47.9899V44.3392Z" fill="#00263E"></path><path d="M84.4904 42.4089C84.2335 42.6467 84.1922 42.6374 83.8573 42.6374H79.1779C78.843 42.6374 78.8017 42.6467 78.5448 42.4089L78.4439 42.3157H78.3613L78.2191 44.2552L78.3613 44.2879C78.7192 43.001 79.2789 42.9498 80.4533 42.9498H81.068V47.7473C81.068 49.0341 81.0038 49.3745 79.6367 49.5423V49.6962H83.394V49.5423C82.0268 49.3745 81.9626 49.0341 81.9626 47.7473V42.9498H82.5728C83.7472 42.9498 84.3115 43.001 84.6693 44.2879L84.8115 44.2552L84.6693 42.3157H84.5867L84.4904 42.4089Z" fill="#00263E"></path><path d="M88.6972 42.6372V42.7911C89.5827 42.903 89.6652 43.2993 89.0321 44.5022L88.1421 46.2133L87.1191 43.9707C86.7934 43.2433 86.6787 42.903 87.5182 42.7864V42.6326H84.7014V42.7864C85.7336 42.9123 86.0089 43.649 86.3988 44.5208L87.4586 46.8753V47.7052C87.4402 48.8988 87.4173 49.3231 86.1098 49.5329V49.6867H89.7019V49.5329C88.3945 49.3231 88.3761 48.8988 88.3532 47.7052V46.535L89.5597 44.1059C89.991 43.3599 90.4268 42.861 91.3168 42.7864V42.6326H88.6972V42.6372Z" fill="#00263E"></path><path d="M97.9459 42.7632C99.5057 42.7632 100.561 44.507 100.588 46.3439C100.588 47.8266 99.8452 49.5703 98.1569 49.5703C96.3173 49.5703 95.4823 47.5142 95.4823 45.9057C95.4869 44.507 96.1888 42.7632 97.9459 42.7632ZM98.0285 42.5115C95.8906 42.5115 94.2987 43.9428 94.2987 46.1528C94.2987 48.3954 95.8814 49.8174 98.0376 49.8174C100.18 49.8174 101.777 48.3954 101.777 46.1621C101.777 44.3205 100.643 42.5115 98.0285 42.5115Z" fill="#00263E"></path><path d="M107.153 44.9218C107.071 45.9055 106.539 45.9895 105.681 45.9895H104.566V42.8843H105.493C106.566 42.8843 107.424 42.9356 107.484 44.2737H107.635L107.796 42.6326H102.396V42.7864C103.621 42.9543 103.63 43.262 103.662 44.3343V47.985C103.63 49.0526 103.621 49.365 102.396 49.5329V49.6867H106.029V49.5329C104.612 49.3137 104.557 49.0993 104.557 47.985V46.4184H105.672C106.529 46.4184 107.062 46.3951 107.144 47.4441H107.296V44.9125H107.153V44.9218Z" fill="#00263E"></path><path d="M117.324 42.4089C117.072 42.6467 117.03 42.6374 116.691 42.6374H112.016C111.677 42.6374 111.635 42.6467 111.383 42.4089L111.278 42.3157H111.195L111.053 44.2552L111.195 44.2879C111.553 43.001 112.117 42.9498 113.287 42.9498H113.902V47.7473C113.902 49.0341 113.842 49.3745 112.47 49.5423V49.6962H116.228V49.5423C114.86 49.3745 114.796 49.0341 114.796 47.7473V42.9498H115.406C116.581 42.9498 117.14 43.001 117.498 44.2879L117.641 44.2552L117.498 42.3157H117.416L117.324 42.4089Z" fill="#00263E"></path><path d="M120.191 46.2788H124.297V47.9899C124.297 49.1321 124.274 49.3373 122.939 49.5378V49.6916H126.463V49.5378C125.238 49.3699 125.224 49.0622 125.196 47.9899V44.3392C125.224 43.2715 125.238 42.9592 126.463 42.7913V42.6375H122.939V42.7913C124.279 42.9871 124.297 43.1969 124.297 44.3392V45.8452H120.191V44.3392C120.191 43.1969 120.21 42.9918 121.549 42.7913V42.6375H118.026V42.7913C119.251 42.9592 119.26 43.2669 119.292 44.3392V47.9899C119.26 49.0575 119.251 49.3699 118.026 49.5378V49.6916H121.549V49.5378C120.21 49.3419 120.191 49.1321 120.191 47.9899V46.2788Z" fill="#00263E"></path><path d="M126.976 49.6963H132.656C132.862 49.0762 132.991 48.4328 133.005 47.6402H132.849C132.592 48.9456 131.963 49.4445 130.674 49.4445C129 49.4445 129.142 48.596 129.142 47.9805V46.2788H130.206C130.972 46.2788 131.532 46.2881 131.665 47.2019H131.816V44.8894H131.665C131.555 45.7799 130.972 45.8452 130.206 45.8452H129.142V42.8892H130.133C131.165 42.8892 132.115 42.8985 132.183 44.2366H132.335L132.459 42.6375H126.972V42.7913C128.197 42.9592 128.206 43.2669 128.238 44.3392V47.9898C128.206 49.0575 128.197 49.3699 126.972 49.5378V49.6963H126.976Z" fill="#00263E"></path><path d="M0 18.8546C0 8.44355 8.3082 0 18.5524 0C28.8011 0 37.1048 8.44355 37.1048 18.8546C37.1048 29.2703 28.7966 37.7092 18.5524 37.7092C8.3082 37.7092 0 29.2703 0 18.8546Z" fill="#33A3AA"></path><path d="M20.6627 36.3152C20.6627 36.3152 13.639 32.9537 14.3822 24.0112C14.3822 24.0112 14.4648 21.9551 15.9925 14.1457C15.9925 14.1457 16.2218 13.3904 15.4328 13.4323C15.4328 13.4323 12.2122 13.1992 11.6938 10.5976C11.6938 10.5976 11.258 7.88877 14.6253 7.19874C14.6253 7.19874 15.2447 7.07285 14.8547 6.77912C14.8547 6.77912 13.5518 5.66482 14.4005 3.92575C14.4005 3.92575 15.2676 2.01418 18.8414 2.41515C18.8414 2.41515 20.4746 2.66692 21.7958 3.40357C21.7958 3.40357 22.0252 3.6973 21.0297 3.57141C21.0297 3.57141 17.0614 3.04457 16.0934 4.83025C16.0934 4.83025 15.8044 5.24987 15.9466 6.19633C15.9466 6.19633 15.9879 6.76047 16.6301 6.23829C16.6301 6.23829 18.1808 4.8116 20.3691 5.65083L23.5299 7.05887C23.5299 7.05887 24.1722 7.41787 23.3005 7.47848C23.3005 7.47848 20.9654 7.5624 19.4974 6.90967C19.4974 6.90967 17.4926 6.32221 17.3917 8.19182C17.2862 10.0614 19.1671 10.206 19.1671 10.206C19.1671 10.206 20.158 10.4391 22.3509 9.89358C22.3509 9.89358 21.1535 11.5301 18.9423 11.6373C18.9423 11.6373 17.9101 11.5767 17.6394 11.9963C17.6394 11.9963 17.0384 12.7097 18.1349 13.2365C18.1349 13.2365 17.5155 13.3437 17.3275 14.183C17.3275 14.183 15.5108 21.1532 15.3456 24.305C15.3456 24.305 14.6437 29.634 17.8183 33.252C17.8183 33.252 19.5387 35.7697 23.1308 36.9027C23.1308 36.9027 26.6036 38.0776 29.1222 37.3036C29.1222 37.3036 26.8009 38.5065 18.1624 37.8118L17.2082 37.7046C17.2082 37.7046 21.2728 37.8445 21.5022 37.1544C21.5022 37.1544 21.7041 36.8747 20.9058 36.4831L20.6627 36.3152ZM16.2402 12.2341L16.3457 11.269L15.7034 10.6396C14.7767 9.77703 15.2722 8.5415 15.2722 8.5415C15.5016 8.01465 15.2905 7.95404 15.2905 7.95404C15.0841 7.87012 14.8134 8.03796 14.8134 8.03796C13.7583 8.70934 13.6573 9.25484 13.6573 9.25484C12.9738 11.8378 15.5796 12.5092 15.5796 12.5092C16.3411 12.6724 16.2402 12.2341 16.2402 12.2341Z" fill="white"></path><path d="M26.2826 17.2788C31.7969 17.2788 36.2698 21.8246 36.2698 27.4288C36.2698 33.0329 31.7969 37.5787 26.2826 37.5787C20.7636 37.5787 16.2953 33.0329 16.2953 27.4288C16.2953 21.82 20.7636 17.2788 26.2826 17.2788Z" fill="#33A3AA"></path><path d="M17.0935 27.4288C17.0935 22.2722 21.2086 18.0901 26.2825 18.0901C31.3565 18.0901 35.4716 22.2676 35.4716 27.4288C35.4716 32.59 31.3565 36.7675 26.2825 36.7675C21.2086 36.7675 17.0935 32.5854 17.0935 27.4288Z" fill="white"></path><path d="M31.3244 33.0002C31.3244 33.0002 32.2649 32.9349 32.2649 32.161C32.2649 32.161 32.4071 31.5409 31.2097 31.5735L23.6997 32.3521L21.9014 32.6039C21.9014 32.6039 21.3234 32.6878 21.3922 32.8883C21.3922 32.8883 21.3417 33.1074 22.1996 33.1074L30.783 33.0468L31.3244 33.0002Z" fill="#33A3AA"></path><path d="M32.5951 29.6014L26.1494 20.9107C26.1494 20.9107 25.7549 20.2813 25.3649 20.4259C25.3649 20.4259 25.053 20.4259 24.3924 21.9784L21.7086 27.3961C21.7086 27.3961 20.9241 28.6549 22.2866 29.5781C22.2866 29.5781 24.3511 31.0467 24.9521 31.2565C24.9521 31.2565 26.1081 31.9093 27.3284 31.0467C27.3284 31.0467 28.3836 30.352 27.1816 30.5199C27.1816 30.5199 26.466 31.0094 25.8237 30.8509C25.7274 30.7996 23.1354 29.4615 22.9794 27.9602L25.0071 24.2117C25.0071 24.2117 25.6219 22.5566 26.7412 23.862L32.5951 29.6014Z" fill="#33A3AA"></path></g><defs><clipPath id="clip0"><rect width="133" height="60" fill="white"></rect></clipPath></defs></svg>